<svg width="236" height="38" viewBox="0 0 236 38" fill="none" xmlns="http://www.w3.org/2000/svg">
<mask id="mask0_713_395" style="mask-type:luminance" maskUnits="userSpaceOnUse" x="0" y="0" width="42" height="37">
<path d="M42 0H0V37H42V0Z" fill="white"/>
</mask>
<g mask="url(#mask0_713_395)">
<path d="M38.2475 17.903L32.7595 8.48146L30.0613 3.85056C29.8453 3.48038 29.4499 3.25537 29.0179 3.25537H12.6492C12.2208 3.25537 11.8218 3.48401 11.6058 3.85056L3.42324 17.903C3.20723 18.2732 3.20723 18.7268 3.42324 19.097L4.99751 21.8008L11.6058 33.1493C11.8218 33.5195 12.2172 33.7445 12.6492 33.7445H29.0179C29.4462 33.7445 29.8453 33.5158 30.0613 33.1493L38.2475 19.097C38.4598 18.7268 38.4598 18.2732 38.2475 17.903Z" fill="#F9C300"/>
<path d="M37.702 25.4482C37.5153 25.4482 37.3286 25.401 37.1528 25.303C36.6293 25.0018 36.4462 24.3376 36.7501 23.815L39.7668 18.6361C39.8144 18.5526 39.8144 18.4474 39.7668 18.3639L30.4201 2.31545C30.3725 2.23198 30.281 2.17754 30.1821 2.17754H19.6016C18.9938 2.17754 18.5032 1.69122 18.5032 1.08877C18.5032 0.486317 18.9938 0 19.6016 0H30.1858C31.0644 0 31.8882 0.468171 32.3275 1.22668L41.6706 17.2751C42.1099 18.03 42.1099 18.97 41.6706 19.7249L38.6539 24.9038C38.4525 25.2522 38.0827 25.4482 37.702 25.4482Z" fill="white"/>
<path d="M30.1821 36.9998H11.4886C10.6099 36.9998 9.78619 36.5316 9.34686 35.7731L7.86046 33.2181C7.55659 32.6992 7.73598 32.0314 8.26318 31.7302C8.79037 31.4289 9.46035 31.6068 9.76422 32.1294L11.2506 34.6844C11.2982 34.7678 11.3897 34.8223 11.4886 34.8223H30.1821C30.281 34.8223 30.3725 34.7715 30.4201 34.6844L34.5315 27.6255C34.8354 27.1065 35.5053 26.9251 36.0325 27.2263C36.5561 27.5275 36.7391 28.1917 36.4353 28.7143L32.3238 35.7731C31.8845 36.528 31.0644 36.9998 30.1821 36.9998Z" fill="white"/>
<path d="M0 17.2751L9.34676 1.22668C9.78609 0.468171 10.6062 0 11.4885 0H15.9111C16.5188 0 17.0094 0.486317 17.0094 1.08877C17.0094 1.69122 16.5188 2.17754 15.9111 2.17754H11.4885C11.3896 2.17754 11.2981 2.22835 11.2505 2.31545L1.90377 18.3639C1.85617 18.4474 1.85617 18.5526 1.90377 18.6361L7.24163 27.8035C7.5455 28.3225 7.36611 28.9903 6.83891 29.2915C6.66684 29.3895 6.47646 29.4367 6.28975 29.4367C5.909 29.4367 5.53923 29.2407 5.33787 28.8923L0 19.7249" fill="white"/>
<path d="M23.7678 16.9595C23.7678 16.967 23.7678 16.9782 23.7678 16.9857C23.7753 16.9857 23.7866 16.9857 23.7941 16.9857C23.7866 16.9857 23.7791 16.9857 23.7715 16.9857C23.7678 16.9744 23.7678 16.967 23.7678 16.9595Z" fill="#033D50"/>
<path d="M23.3541 11.8565C23.5554 12.6477 23.6836 13.5949 23.7458 14.6728C23.7678 15.0974 23.7788 15.5075 23.7824 15.8886C23.7824 15.8595 23.7861 15.8305 23.7861 15.8051C23.8666 14.4115 24.1449 13.6675 24.3755 13.4352C25.1956 12.6223 26.5282 12.6223 27.3483 13.4352C28.1684 14.2482 28.1684 15.5692 27.3483 16.3821C27.114 16.6144 26.3635 16.8902 24.9576 16.9664C24.9284 16.9664 24.8991 16.9701 24.8734 16.9701C25.2579 16.9737 25.6716 16.981 26.0999 17.0064C27.1872 17.0644 28.1428 17.1951 28.9409 17.3947C28.9665 17.402 28.9885 17.4056 29.0141 17.4128C30.2882 15.8414 30.1893 13.5332 28.7212 12.0779C27.2531 10.6226 24.9247 10.5246 23.3394 11.7875C23.3431 11.8057 23.3468 11.8311 23.3541 11.8565Z" fill="#033D50"/>
<path d="M12.7846 24.3703C12.77 24.6425 12.759 24.9074 12.7517 25.1687C13.5168 24.8493 14.4358 24.9945 15.0582 25.6115C15.6805 26.2284 15.8306 27.1394 15.5048 27.8979C15.7757 27.8906 16.0503 27.8797 16.3322 27.8652C16.7569 27.8434 17.1633 27.8108 17.5477 27.7709C17.7637 26.5333 17.3903 25.2123 16.4274 24.2578C15.4645 23.3033 14.1319 22.9331 12.8835 23.1472C12.8432 23.5356 12.8102 23.942 12.7846 24.3703Z" fill="#033D50"/>
<path d="M23.365 26.5948C23.0977 26.3299 22.8634 26.0032 22.6657 25.6149C22.4863 25.8653 22.2849 26.1048 22.058 26.3299C21.2159 27.1646 19.184 27.709 16.3357 27.865C14.9188 27.9412 13.5972 27.9086 12.7844 27.8687C12.7442 27.0702 12.7112 25.771 12.7881 24.3701C12.9455 21.532 13.4947 19.5105 14.3367 18.6758C14.5637 18.4508 14.8053 18.2512 15.058 18.0734C14.6662 17.8738 14.3367 17.6451 14.0695 17.3802C13.8827 17.1951 13.7107 16.9991 13.5533 16.7959C13.3482 16.9592 13.1542 17.1334 12.9638 17.3221C12.2572 18.0226 11.7337 19.0641 11.3712 20.5013C11.104 21.5574 10.9283 22.824 10.8514 24.2685C10.7196 26.6928 10.899 28.7723 10.9063 28.8594L10.9758 29.6615L11.7849 29.7304C11.8728 29.7377 13.9706 29.9155 16.4162 29.7849C17.8733 29.705 19.1511 29.5308 20.2164 29.2695C21.6662 28.9102 22.717 28.3949 23.4235 27.6908C23.6103 27.5057 23.786 27.3098 23.9544 27.1065C23.7494 26.9505 23.5517 26.7799 23.365 26.5948Z" fill="#033D50"/>
<path d="M25.7081 7.447C25.3895 7.76274 25.3346 8.25269 25.5689 8.63376C26.1584 9.58099 26.2792 10.7351 25.9314 11.7658L27.4031 13.2247C28.3367 11.4682 28.2745 9.32331 27.2128 7.6212C26.8869 7.09496 26.1474 7.01149 25.7081 7.447Z" fill="#033D50"/>
<path d="M33.3854 15.0577C33.0669 15.3734 32.5726 15.4279 32.1882 15.1956C31.2326 14.6113 30.0684 14.4915 29.0287 14.8363L27.5569 13.3773C29.3289 12.4519 31.4926 12.5136 33.2096 13.5661C33.7405 13.8891 33.8247 14.6222 33.3854 15.0577Z" fill="#033D50"/>
<path d="M31.412 18.618C30.8592 18.07 30.0465 17.6672 28.9371 17.3914C28.139 17.1918 27.1835 17.0647 26.0961 17.003C25.2102 16.9559 24.3864 16.9631 23.7677 16.9813C23.7897 16.3679 23.797 15.5477 23.7457 14.6731C23.6871 13.5952 23.5553 12.648 23.354 11.8568C23.0757 10.7535 22.6694 9.95141 22.1165 9.40339C19.8979 7.20408 16.2881 7.20408 14.0658 9.40339C11.8472 11.6027 11.8472 15.1812 14.0658 17.3841C14.6186 17.9321 15.4314 18.335 16.5407 18.6108C17.3388 18.8104 18.2944 18.9374 19.3817 18.9991C20.2677 19.0463 21.0914 19.039 21.7102 19.0209C21.6882 19.6342 21.6809 20.4544 21.7321 21.3291C21.7907 22.407 21.9225 23.3542 22.1239 24.1454C22.4021 25.2487 22.8085 26.0507 23.3613 26.5987C25.5799 28.798 29.1898 28.798 31.412 26.5987C33.6307 24.3958 33.6307 20.8174 31.412 18.618ZM19.4915 17.0793C17.4816 16.9704 16.0025 16.5857 15.4387 16.0268C13.9743 14.5751 13.9743 12.2125 15.4387 10.7608C16.9031 9.30903 19.2865 9.30903 20.7509 10.7608C21.3148 11.3197 21.7028 12.7786 21.8127 14.7565C21.8639 15.6566 21.8493 16.5022 21.8273 17.0901C21.2342 17.1155 20.3922 17.1264 19.4915 17.0793ZM24.7306 25.2378C24.1667 24.6789 23.7787 23.2199 23.6688 21.242C23.6176 20.3419 23.6322 19.4963 23.6542 18.9084C24.2436 18.8866 25.0857 18.8721 25.9863 18.9193C27.9962 19.0282 29.4753 19.4128 30.0391 19.9718C31.5036 21.4234 31.5036 23.7861 30.0391 25.2378C28.5784 26.6895 26.195 26.6895 24.7306 25.2378Z" fill="#033D50"/>
</g>
<path d="M55.2812 29H48.8945V16.1094C48.8945 14.7292 49.2656 13.5117 50.0078 12.457C50.763 11.3893 51.7461 10.5755 52.957 10.0156C54.168 9.44271 55.4375 9.15625 56.7656 9.15625C59.3047 9.15625 61.2122 10.0352 62.4883 11.793C64.1419 9.98307 66.1146 9.07812 68.4062 9.07812C69.7604 9.07812 71.043 9.41016 72.2539 10.0742C73.4648 10.7253 74.4349 11.5977 75.1641 12.6914C75.9062 13.7852 76.2773 14.9245 76.2773 16.1094V29H69.8906V17.0273C69.8906 16.5065 69.6823 16.0768 69.2656 15.7383C68.849 15.3997 68.3346 15.2305 67.7227 15.2305C67.1628 15.2305 66.694 15.4193 66.3164 15.7969C65.9518 16.1745 65.7695 16.7734 65.7695 17.5938V29H59.3633V17.3594C59.3633 16.7083 59.1615 16.181 58.7578 15.7773C58.3672 15.3607 57.8919 15.1523 57.332 15.1523C56.7852 15.1523 56.3034 15.3672 55.8867 15.7969C55.4831 16.2135 55.2812 16.7604 55.2812 17.4375V29ZM100.906 29H94.5V19.4688C94.5 18.6484 94.3438 17.8997 94.0312 17.2227C93.7188 16.5326 93.224 15.9792 92.5469 15.5625C91.8698 15.1328 91.0169 14.918 89.9883 14.918C89.0117 14.918 88.0352 15.25 87.0586 15.9141C86.0951 16.5651 85.6133 17.6719 85.6133 19.2344C85.6133 20.7839 86.0755 21.8971 87 22.5742C87.9245 23.2513 88.862 23.5898 89.8125 23.5898C91.1406 23.5898 92.1823 23.4206 92.9375 23.082V28.3555C92.5729 28.6549 92 28.9284 91.2188 29.1758C90.4245 29.3841 89.6237 29.4883 88.8164 29.4883C87.0065 29.4883 85.3724 29.0391 83.9141 28.1406C82.4688 27.2292 81.3164 25.9857 80.457 24.4102C79.6107 22.8216 79.1875 21.0964 79.1875 19.2344C79.1875 18.2448 79.3047 17.3203 79.5391 16.4609C79.7865 15.5885 80.1576 14.7552 80.6523 13.9609C81.5898 12.4375 82.8138 11.2591 84.3242 10.4258C85.1055 9.99609 85.9062 9.66406 86.7266 9.42969C87.5469 9.19531 88.3672 9.07812 89.1875 9.07812C89.9297 9.07812 90.6328 9.11719 91.2969 9.19531C91.974 9.27344 92.6641 9.40365 93.3672 9.58594C94.7344 9.91146 95.9844 10.4388 97.1172 11.168C98.25 11.8841 99.1615 12.8346 99.8516 14.0195C100.555 15.2044 100.906 16.5846 100.906 18.1602V29ZM110.359 29H104.266V17.5938C104.266 15.0547 105.014 13.0104 106.512 11.4609C107.28 10.6536 108.178 10.0417 109.207 9.625C110.236 9.20833 111.401 9 112.703 9C114.461 9 115.958 9.41016 117.195 10.2305C118.445 11.0508 119.389 12.1185 120.027 13.4336C120.665 14.7357 120.984 16.0443 120.984 17.3594V29H114.832V17.9062C114.832 17.0469 114.604 16.3633 114.148 15.8555C113.693 15.3346 113.133 15.0742 112.469 15.0742C111.896 15.0742 111.401 15.3216 110.984 15.8164C110.568 16.2982 110.359 16.9688 110.359 17.8281V29ZM130.281 9.54688V20.7188C130.281 21.5651 130.49 22.2422 130.906 22.75C131.336 23.2578 131.831 23.5117 132.391 23.5117C132.716 23.5117 133.009 23.4466 133.27 23.3164C133.543 23.1732 133.81 22.9648 134.07 22.6914C134.526 22.1706 134.754 21.487 134.754 20.6406V9.54688H140.906V21.1094C140.906 21.7865 140.835 22.444 140.691 23.082C140.548 23.707 140.314 24.3581 139.988 25.0352C139.389 26.3112 138.458 27.3724 137.195 28.2188C135.932 29.0651 134.409 29.4883 132.625 29.4883C131.323 29.4883 130.158 29.2865 129.129 28.8828C128.113 28.4792 127.215 27.8802 126.434 27.0859C124.936 25.5234 124.188 23.4792 124.188 20.9531V9.54688H130.281ZM150.594 0.953125V15.3867L151.121 15.4844C151.811 15.4844 152.371 15.1719 152.801 14.5469C153.243 13.9089 153.628 13.1406 153.953 12.2422L154.91 9.46875H161.473L159.832 14.1562C159.637 14.7292 159.441 15.224 159.246 15.6406C159.051 16.0443 158.842 16.3958 158.621 16.6953C158.191 17.2812 157.651 17.6328 157 17.75C158.745 18.2318 159.904 18.9544 160.477 19.918C160.75 20.3867 160.958 20.9401 161.102 21.5781C161.245 22.2031 161.316 22.9258 161.316 23.7461V29H155.105V24C155.105 23.0625 154.871 22.3919 154.402 21.9883C153.934 21.5716 153.367 21.3633 152.703 21.3633H150.594V29H144.188V0.953125H150.594ZM185.359 29H178.953V19.4688C178.953 18.6484 178.797 17.8997 178.484 17.2227C178.172 16.5326 177.677 15.9792 177 15.5625C176.323 15.1328 175.47 14.918 174.441 14.918C173.465 14.918 172.488 15.25 171.512 15.9141C170.548 16.5651 170.066 17.6719 170.066 19.2344C170.066 20.7839 170.529 21.8971 171.453 22.5742C172.378 23.2513 173.315 23.5898 174.266 23.5898C175.594 23.5898 176.635 23.4206 177.391 23.082V28.3555C177.026 28.6549 176.453 28.9284 175.672 29.1758C174.878 29.3841 174.077 29.4883 173.27 29.4883C171.46 29.4883 169.826 29.0391 168.367 28.1406C166.922 27.2292 165.77 25.9857 164.91 24.4102C164.064 22.8216 163.641 21.0964 163.641 19.2344C163.641 18.2448 163.758 17.3203 163.992 16.4609C164.24 15.5885 164.611 14.7552 165.105 13.9609C166.043 12.4375 167.267 11.2591 168.777 10.4258C169.559 9.99609 170.359 9.66406 171.18 9.42969C172 9.19531 172.82 9.07812 173.641 9.07812C174.383 9.07812 175.086 9.11719 175.75 9.19531C176.427 9.27344 177.117 9.40365 177.82 9.58594C179.188 9.91146 180.438 10.4388 181.57 11.168C182.703 11.8841 183.615 12.8346 184.305 14.0195C185.008 15.2044 185.359 16.5846 185.359 18.1602V29ZM192.488 21.2656C193.699 21.2656 194.695 21.6562 195.477 22.4375C195.88 22.8542 196.18 23.3034 196.375 23.7852C196.583 24.2539 196.688 24.7878 196.688 25.3867C196.688 25.9987 196.525 26.6237 196.199 27.2617C195.874 27.8867 195.392 28.4141 194.754 28.8438C194.129 29.2734 193.4 29.4883 192.566 29.4883C191.382 29.4883 190.405 29.0456 189.637 28.1602C188.868 27.2747 188.484 26.2982 188.484 25.2305C188.484 24.2669 188.875 23.3685 189.656 22.5352C190.451 21.6888 191.395 21.2656 192.488 21.2656ZM204.266 9.54688L207.02 22.5156L209.578 9.54688H216.141L211.531 25.1523C210.711 28.043 209.181 29.4883 206.941 29.4883C204.454 29.4883 202.866 28.0951 202.176 25.3086L197.84 9.54688H204.266ZM223.641 29H217.547V17.5938C217.547 15.0547 218.296 13.0104 219.793 11.4609C220.561 10.6536 221.46 10.0417 222.488 9.625C223.517 9.20833 224.682 9 225.984 9C227.742 9 229.24 9.41016 230.477 10.2305C231.727 11.0508 232.671 12.1185 233.309 13.4336C233.947 14.7357 234.266 16.0443 234.266 17.3594V29H228.113V17.9062C228.113 17.0469 227.885 16.3633 227.43 15.8555C226.974 15.3346 226.414 15.0742 225.75 15.0742C225.177 15.0742 224.682 15.3216 224.266 15.8164C223.849 16.2982 223.641 16.9688 223.641 17.8281V29Z" fill="white"/>
</svg>
