<?xml version="1.0" encoding="UTF-8"?>
<svg xmlns="http://www.w3.org/2000/svg" width="158" height="37" viewBox="0 0 158 37" fill="none">
  <path d="M48 5.16643V31.103C48 34.1819 49.2601 36.2694 52.358 36.2694C53.8282 36.2694 54.9308 35.7997 55.6659 34.9126C57.3461 32.8251 56.716 24.5797 56.716 23.9535C56.716 20.6657 58.4487 18.0564 61.9666 18.0564C65.4845 18.0564 67.1647 20.7701 67.1647 23.9535C67.1647 27.1368 65.4845 29.8505 61.9666 29.8505C60.7589 29.8505 60.0764 29.5896 59.3938 29.2243C59.0263 31.4683 58.3437 33.5557 57.6611 34.6516C59.3413 36.165 61.7566 36.8956 64.2768 36.8956C72.0477 36.8956 75.8807 31.1551 75.8807 23.9535C75.8807 16.5952 71.9427 10.9069 63.9618 10.9069C60.969 10.9069 58.3437 12.1072 56.716 14.5599V5.16643C56.716 2.03526 55.5084 0 52.358 0C49.2601 0 48 2.08745 48 5.16643Z" fill="#033D50"></path>
  <path d="M77.5161 28.024C78.0937 21.031 84.7094 17.5867 89.75 17.8477C92.4803 18.0042 93.7404 19.5698 93.7404 21.4485H86.6521C83.4493 21.4485 80.9815 22.8575 79.5638 24.9972C77.9361 27.4499 78.1462 30.6333 79.9839 32.9295C82.2941 35.7997 86.2321 37 90.17 37C92.9529 37 100.199 36.2172 100.199 32.3554C100.199 30.5289 99.2536 29.2243 97.3108 29.2243C96.8383 29.2243 96.1557 29.2764 95.2631 29.4852C93.9505 29.7461 92.2703 30.0592 90.6426 30.0592C89.1199 30.0592 85.707 29.4852 85.707 27.3977H97.1008C100.199 27.3977 101.721 25.6234 101.721 22.0226C101.721 15.4993 96.6808 10.9591 89.75 10.9591C85.392 10.9591 82.1366 12.5769 80.1939 14.8731C77.0435 18.5783 76.3085 23.5882 77.5161 28.024Z" fill="#033D50"></path>
  <path d="M103.108 28.024C103.686 21.031 110.302 17.5867 115.342 17.8477C118.072 18.0042 119.333 19.5698 119.333 21.4485H112.244C109.041 21.4485 106.574 22.8575 105.156 24.9972C103.528 27.4499 103.738 30.6333 105.576 32.9295C107.886 35.7997 111.824 37 115.762 37C118.545 37 125.791 36.2172 125.791 32.3554C125.791 30.5289 124.846 29.2243 122.903 29.2243C122.43 29.2243 121.748 29.2764 120.855 29.4852C119.543 29.7461 117.862 30.0592 116.235 30.0592C114.712 30.0592 111.299 29.4852 111.299 27.3977H122.693C125.791 27.3977 127.313 25.6234 127.313 22.0226C127.313 15.4993 122.273 10.9591 115.342 10.9591C110.984 10.9591 107.729 12.5769 105.786 14.8731C102.636 18.5783 101.901 23.5882 103.108 28.024Z" fill="#033D50"></path>
  <path d="M126.844 33.1904C126.844 35.33 128.734 36.2694 130.624 36.2694H138.133C136.715 34.0254 136.61 30.9464 138.238 28.859C138.238 28.859 138.238 28.8068 138.29 28.7546C138.973 27.763 141.021 25.2059 142.858 22.9619C143.908 21.6051 145.064 20.1439 146.271 18.5261C147.374 17.2214 147.899 15.9168 147.899 14.7165C147.899 12.5769 146.061 11.6375 144.118 11.6375H138.868C139.34 14.5078 138.028 17.1693 136.453 19.1001L136.295 19.2567L128.472 29.433C127.369 30.7377 126.844 31.9901 126.844 33.1904ZM131.57 18.787C133.775 18.787 136.4 17.8477 137.24 15.3949C137.66 14.1946 137.975 12.9422 137.923 11.6375H131.622C128.944 11.6375 126.844 12.5247 126.844 15.1862C126.844 17.8999 129.207 18.787 131.57 18.787ZM138.448 33.4513C138.5 34.5473 138.763 35.4866 139.13 36.2694H143.698C146.114 36.2694 148.424 35.4344 148.424 32.6685C148.424 31.4683 148.004 30.6333 147.216 30.0592C147.006 29.8505 146.744 29.7461 146.481 29.5896C145.746 29.2764 144.801 29.1199 143.698 29.1199H142.648C140.286 29.1199 138.395 31.103 138.448 33.4513Z" fill="#033D50"></path>
  <path d="M153.642 36.2694C156.792 36.2694 158 34.1819 158 31.103V16.8039C158 13.725 156.792 11.6375 153.642 11.6375C150.544 11.6375 149.284 13.725 149.284 16.8039V31.103C149.284 34.1819 150.544 36.2694 153.642 36.2694ZM153.642 9.23695C156.11 9.23695 157.895 6.99295 157.895 4.64457C157.895 2.29619 156.162 0 153.642 0C151.122 0 149.389 2.29619 149.389 4.64457C149.389 6.99295 151.174 9.23695 153.642 9.23695Z" fill="#033D50"></path>
  <g clip-path="url(#clip0_19_39)">
    <path d="M38.2474 17.903L32.7594 8.48151L30.0612 3.85061C29.8452 3.48043 29.4498 3.25542 29.0178 3.25542H12.6491C12.2207 3.25542 11.8217 3.48406 11.6057 3.85061L3.42312 17.903C3.20711 18.2732 3.20711 18.7268 3.42312 19.097L4.99739 21.8008L11.6057 33.1494C11.8217 33.5196 12.2171 33.7446 12.6491 33.7446H29.0178C29.4461 33.7446 29.8452 33.5159 30.0612 33.1494L38.2474 19.097C38.4597 18.7268 38.4597 18.2732 38.2474 17.903Z" fill="#F9C300"></path>
    <path d="M37.7019 25.4482C37.5152 25.4482 37.3285 25.401 37.1527 25.303C36.6292 25.0018 36.4461 24.3376 36.75 23.815L39.7667 18.6361C39.8143 18.5526 39.8143 18.4474 39.7667 18.3639L30.42 2.31545C30.3724 2.23198 30.2809 2.17754 30.182 2.17754H19.6015C18.9937 2.17754 18.5031 1.69122 18.5031 1.08877C18.5031 0.486317 18.9937 0 19.6015 0H30.1857C31.0643 0 31.8881 0.468171 32.3274 1.22668L41.6705 17.2751C42.1098 18.03 42.1098 18.97 41.6705 19.7249L38.6538 24.9038C38.4524 25.2522 38.0826 25.4482 37.7019 25.4482Z" fill="#033D50"></path>
    <path d="M30.182 37H11.4885C10.6098 37 9.78609 36.5318 9.34676 35.7733L7.86036 33.2183C7.55649 32.6994 7.73588 32.0316 8.26308 31.7304C8.79027 31.4291 9.46025 31.607 9.76412 32.1296L11.2505 34.6846C11.2981 34.768 11.3896 34.8225 11.4885 34.8225H30.182C30.2809 34.8225 30.3724 34.7717 30.42 34.6846L34.5314 27.6257C34.8353 27.1067 35.5052 26.9253 36.0324 27.2265C36.556 27.5277 36.739 28.1919 36.4352 28.7145L32.3237 35.7733C31.8844 36.5282 31.0643 37 30.182 37Z" fill="#033D50"></path>
    <path d="M0 17.2751L9.34676 1.22668C9.78609 0.468171 10.6062 0 11.4885 0H15.9111C16.5188 0 17.0094 0.486317 17.0094 1.08877C17.0094 1.69122 16.5188 2.17754 15.9111 2.17754H11.4885C11.3896 2.17754 11.2981 2.22835 11.2505 2.31545L1.90377 18.3639C1.85617 18.4474 1.85617 18.5526 1.90377 18.6361L7.24163 27.8035C7.5455 28.3225 7.36611 28.9903 6.83891 29.2915C6.66684 29.3895 6.47646 29.4367 6.28975 29.4367C5.909 29.4367 5.53923 29.2407 5.33787 28.8923L0 19.7249" fill="#033D50"></path>
    <path d="M23.7678 16.9594C23.7678 16.9669 23.7678 16.9781 23.7678 16.9856C23.7753 16.9856 23.7866 16.9856 23.7941 16.9856C23.7866 16.9856 23.7791 16.9856 23.7715 16.9856C23.7678 16.9743 23.7678 16.9669 23.7678 16.9594Z" fill="#033D50"></path>
    <path d="M23.3541 11.8567C23.5554 12.6479 23.6836 13.5951 23.7458 14.673C23.7678 15.0976 23.7788 15.5077 23.7824 15.8888C23.7824 15.8597 23.7861 15.8307 23.7861 15.8053C23.8666 14.4117 24.1449 13.6677 24.3755 13.4354C25.1956 12.6225 26.5282 12.6225 27.3483 13.4354C28.1684 14.2484 28.1684 15.5694 27.3483 16.3823C27.114 16.6146 26.3635 16.8904 24.9576 16.9666C24.9284 16.9666 24.8991 16.9703 24.8734 16.9703C25.2579 16.9739 25.6716 16.9812 26.0999 17.0066C27.1872 17.0646 28.1428 17.1953 28.9409 17.3949C28.9665 17.4022 28.9885 17.4058 29.0141 17.413C30.2882 15.8416 30.1893 13.5334 28.7212 12.0781C27.2531 10.6228 24.9247 10.5248 23.3394 11.7877C23.3431 11.8059 23.3468 11.8313 23.3541 11.8567Z" fill="#033D50"></path>
    <path d="M12.7845 24.3703C12.7699 24.6425 12.7589 24.9074 12.7516 25.1687C13.5167 24.8493 14.4357 24.9945 15.0581 25.6115C15.6804 26.2284 15.8305 27.1394 15.5047 27.8979C15.7756 27.8906 16.0502 27.8797 16.3321 27.8652C16.7568 27.8434 17.1632 27.8108 17.5476 27.7709C17.7636 26.5333 17.3902 25.2123 16.4273 24.2578C15.4644 23.3033 14.1318 22.9331 12.8834 23.1472C12.8431 23.5356 12.8101 23.942 12.7845 24.3703Z" fill="#033D50"></path>
    <path d="M23.3651 26.595C23.0978 26.3301 22.8635 26.0034 22.6658 25.6151C22.4864 25.8655 22.285 26.105 22.0581 26.3301C21.216 27.1648 19.1841 27.7092 16.3358 27.8652C14.9189 27.9414 13.5973 27.9088 12.7845 27.8689C12.7443 27.0704 12.7113 25.7712 12.7882 24.3703C12.9456 21.5322 13.4948 19.5107 14.3368 18.676C14.5638 18.451 14.8054 18.2514 15.0581 18.0736C14.6663 17.874 14.3368 17.6453 14.0696 17.3804C13.8828 17.1953 13.7108 16.9993 13.5534 16.7961C13.3483 16.9594 13.1543 17.1336 12.9639 17.3223C12.2573 18.0228 11.7338 19.0643 11.3713 20.5015C11.1041 21.5576 10.9284 22.8242 10.8515 24.2687C10.7197 26.693 10.8991 28.7725 10.9064 28.8596L10.9759 29.6617L11.785 29.7306C11.8729 29.7379 13.9707 29.9157 16.4163 29.7851C17.8734 29.7052 19.1512 29.531 20.2165 29.2697C21.6663 28.9104 22.7171 28.3951 23.4236 27.691C23.6104 27.5059 23.7861 27.31 23.9545 27.1067C23.7495 26.9507 23.5518 26.7801 23.3651 26.595Z" fill="#033D50"></path>
    <path d="M25.7082 7.44718C25.3896 7.76292 25.3347 8.25287 25.569 8.63394C26.1585 9.58117 26.2793 10.7353 25.9315 11.766L27.4032 13.2249C28.3368 11.4684 28.2746 9.32349 27.2129 7.62138C26.887 7.09514 26.1475 7.01167 25.7082 7.44718Z" fill="#033D50"></path>
    <path d="M33.3855 15.0577C33.067 15.3734 32.5727 15.4279 32.1883 15.1956C31.2327 14.6113 30.0685 14.4915 29.0288 14.8363L27.557 13.3773C29.329 12.4519 31.4927 12.5136 33.2097 13.5661C33.7406 13.8891 33.8248 14.6222 33.3855 15.0577Z" fill="#033D50"></path>
    <path d="M31.4121 18.6179C30.8593 18.0699 30.0466 17.6671 28.9372 17.3913C28.1391 17.1917 27.1836 17.0646 26.0962 17.0029C25.2103 16.9558 24.3865 16.963 23.7678 16.9812C23.7898 16.3678 23.7971 15.5476 23.7458 14.673C23.6872 13.5951 23.5554 12.6479 23.3541 11.8567C23.0758 10.7534 22.6695 9.95135 22.1166 9.40333C19.898 7.20402 16.2882 7.20402 14.0659 9.40333C11.8473 11.6026 11.8473 15.1811 14.0659 17.384C14.6187 17.932 15.4315 18.3349 16.5408 18.6107C17.3389 18.8103 18.2945 18.9373 19.3818 18.999C20.2678 19.0462 21.0915 19.0389 21.7103 19.0208C21.6883 19.6341 21.681 20.4543 21.7322 21.329C21.7908 22.4069 21.9226 23.3541 22.124 24.1453C22.4022 25.2486 22.8086 26.0506 23.3614 26.5986C25.58 28.7979 29.1899 28.7979 31.4121 26.5986C33.6308 24.3957 33.6308 20.8173 31.4121 18.6179ZM19.4916 17.0792C17.4817 16.9703 16.0026 16.5856 15.4388 16.0267C13.9744 14.575 13.9744 12.2124 15.4388 10.7607C16.9032 9.30897 19.2866 9.30897 20.751 10.7607C21.3149 11.3196 21.7029 12.7785 21.8128 14.7564C21.864 15.6565 21.8494 16.5021 21.8274 17.09C21.2343 17.1154 20.3923 17.1263 19.4916 17.0792ZM24.7307 25.2377C24.1668 24.6788 23.7788 23.2198 23.6689 21.2419C23.6177 20.3418 23.6323 19.4962 23.6543 18.9083C24.2437 18.8865 25.0858 18.872 25.9864 18.9192C27.9963 19.0281 29.4754 19.4127 30.0392 19.9717C31.5037 21.4233 31.5037 23.786 30.0392 25.2377C28.5785 26.6894 26.1951 26.6894 24.7307 25.2377Z" fill="#033D50"></path>
  </g>
  <defs>
    <clipPath id="clip0_19_39">
      <rect width="42" height="37" fill="white"></rect>
    </clipPath>
  </defs>
</svg>
